<svg width="1024" height="1024" viewBox="0 0 1024 1024" fill="none" xmlns="http://www.w3.org/2000/svg">
<g clip-path="url(#clip0_2015_10)">
<rect width="1024" height="1024" fill="#32322E"/>
<g filter="url(#filter0_d_2015_10)">
<path d="M75.4118 247.176H104.824V276.588H75.4118V247.176ZM104.824 247.176H134.235V276.588H104.824V247.176ZM104.824 217.765H134.235V247.176H104.824V217.765ZM75.4118 217.765H104.824V247.176H75.4118V217.765ZM134.235 217.765H163.647V247.176H134.235V217.765ZM134.235 247.176H163.647V276.588H134.235V247.176ZM163.647 247.176H193.059V276.588H163.647V247.176ZM163.647 276.588H193.059V306H163.647V276.588ZM163.647 217.765H193.059V247.176H163.647V217.765ZM163.647 306H193.059V335.412H163.647V306ZM163.647 364.824H193.059V394.235H163.647V364.824ZM163.647 394.235H193.059V423.647H163.647V394.235ZM163.647 423.647H193.059V453.059H163.647V423.647ZM163.647 453.059H193.059V482.471H163.647V453.059ZM163.647 482.471H193.059V511.882H163.647V482.471ZM163.647 511.882H193.059V541.294H163.647V511.882ZM163.647 541.294H193.059V570.706H163.647V541.294ZM163.647 570.706H193.059V600.118H163.647V570.706ZM163.647 600.118H193.059V629.529H163.647V600.118ZM163.647 335.412H193.059V364.824H163.647V335.412ZM134.235 276.588H163.647V306H134.235V276.588ZM104.824 276.588H134.235V306H104.824V276.588ZM104.824 306H134.235V335.412H104.824V306ZM104.824 335.412H134.235V364.824H104.824V335.412ZM134.235 335.412H163.647V364.824H134.235V335.412ZM134.235 364.824H163.647V394.235H134.235V364.824ZM134.235 394.235H163.647V423.647H134.235V394.235ZM134.235 423.647H163.647V453.059H134.235V423.647ZM134.235 453.059H163.647V482.471H134.235V453.059ZM134.235 482.471H163.647V511.882H134.235V482.471ZM134.235 511.882H163.647V541.294H134.235V511.882ZM134.235 541.294H163.647V570.706H134.235V541.294ZM134.235 306H163.647V335.412H134.235V306ZM75.4118 276.588H104.824V306H75.4118V276.588ZM75.4118 306H104.824V335.412H75.4118V306ZM75.4118 335.412H104.824V364.824H75.4118V335.412ZM75.4118 364.824H104.824V394.235H75.4118V364.824ZM75.4118 394.235H104.824V423.647H75.4118V394.235ZM75.4118 423.647H104.824V453.059H75.4118V423.647ZM75.4118 453.059H104.824V482.471H75.4118V453.059ZM75.4118 482.471H104.824V511.882H75.4118V482.471ZM75.4118 511.882H104.824V541.294H75.4118V511.882ZM75.4118 541.294H104.824V570.706H75.4118V541.294ZM75.4118 570.706H104.824V600.118H75.4118V570.706ZM104.824 570.706H134.235V600.118H104.824V570.706ZM104.824 600.118H134.235V629.529H104.824V600.118ZM104.824 541.294H134.235V570.706H104.824V541.294ZM104.824 453.059H134.235V482.471H104.824V453.059ZM104.824 423.647H134.235V453.059H104.824V423.647ZM104.824 394.235H134.235V423.647H104.824V394.235ZM104.824 364.824H134.235V394.235H104.824V364.824ZM104.824 482.471H134.235V511.882H104.824V482.471ZM104.824 511.882H134.235V541.294H104.824V511.882ZM75.4118 600.118H104.824V629.529H75.4118V600.118ZM75.4118 629.529H104.824V658.941H75.4118V629.529ZM104.824 629.529H134.235V658.941H104.824V629.529ZM134.235 600.118H163.647V629.529H134.235V600.118ZM134.235 570.706H163.647V600.118H134.235V570.706ZM193.059 600.118H222.471V629.529H193.059V600.118ZM193.059 629.529H222.471V658.941H193.059V629.529ZM163.647 629.529H193.059V658.941H163.647V629.529ZM134.235 629.529H163.647V658.941H134.235V629.529ZM104.824 658.941H134.235V688.353H104.824V658.941ZM134.235 658.941H163.647V688.353H134.235V658.941ZM163.647 658.941H193.059V688.353H163.647V658.941ZM193.059 658.941H222.471V688.353H193.059V658.941ZM222.471 658.941H251.882V688.353H222.471V658.941ZM222.471 629.529H251.882V658.941H222.471V629.529ZM193.059 688.353H222.471V717.765H193.059V688.353ZM163.647 688.353H193.059V717.765H163.647V688.353ZM134.235 688.353H163.647V717.765H134.235V688.353ZM222.471 688.353H251.882V717.765H222.471V688.353ZM251.882 688.353H281.294V717.765H251.882V688.353ZM251.882 658.941H281.294V688.353H251.882V658.941ZM222.471 776.588H251.882V806H222.471V776.588ZM251.882 776.588H281.294V806H251.882V776.588ZM281.294 776.588H310.706V806H281.294V776.588ZM281.294 747.176H310.706V776.588H281.294V747.176ZM310.706 747.176H340.118V776.588H310.706V747.176ZM251.882 747.176H281.294V776.588H251.882V747.176ZM222.471 747.176H251.882V776.588H222.471V747.176ZM193.059 747.176H222.471V776.588H193.059V747.176ZM193.059 717.765H222.471V747.176H193.059V717.765ZM163.647 717.765H193.059V747.176H163.647V717.765ZM222.471 717.765H251.882V747.176H222.471V717.765ZM251.882 717.765H281.294V747.176H251.882V717.765ZM281.294 717.765H310.706V747.176H281.294V717.765ZM310.706 717.765H340.118V747.176H310.706V717.765ZM340.118 717.765H369.529V747.176H340.118V717.765ZM340.118 688.353H369.529V717.765H340.118V688.353ZM369.529 688.353H398.941V717.765H369.529V688.353ZM398.941 658.941H428.353V688.353H398.941V658.941ZM398.941 629.529H428.353V658.941H398.941V629.529ZM428.353 629.529H457.765V658.941H428.353V629.529ZM369.529 629.529H398.941V658.941H369.529V629.529ZM369.529 658.941H398.941V688.353H369.529V658.941ZM340.118 658.941H369.529V688.353H340.118V658.941ZM310.706 658.941H340.118V688.353H310.706V658.941ZM310.706 688.353H340.118V717.765H310.706V688.353ZM281.294 688.353H310.706V717.765H281.294V688.353ZM281.294 658.941H310.706V688.353H281.294V658.941ZM281.294 629.529H310.706V658.941H281.294V629.529ZM310.706 629.529H340.118V658.941H310.706V629.529ZM310.706 600.118H340.118V629.529H310.706V600.118ZM340.118 629.529H369.529V658.941H340.118V629.529ZM340.118 600.118H369.529V629.529H340.118V600.118ZM369.529 600.118H398.941V629.529H369.529V600.118ZM398.941 600.118H428.353V629.529H398.941V600.118ZM428.353 600.118H457.765V629.529H428.353V600.118ZM428.353 570.706H457.765V600.118H428.353V570.706ZM398.941 570.706H428.353V600.118H398.941V570.706ZM369.529 570.706H398.941V600.118H369.529V570.706ZM340.118 570.706H369.529V600.118H340.118V570.706ZM340.118 541.294H369.529V570.706H340.118V541.294ZM369.529 541.294H398.941V570.706H369.529V541.294ZM398.941 541.294H428.353V570.706H398.941V541.294ZM428.353 541.294H457.765V570.706H428.353V541.294ZM428.353 511.882H457.765V541.294H428.353V511.882ZM398.941 511.882H428.353V541.294H398.941V511.882ZM369.529 511.882H398.941V541.294H369.529V511.882ZM340.118 511.882H369.529V541.294H340.118V511.882ZM428.353 482.471H457.765V511.882H428.353V482.471ZM398.941 482.471H428.353V511.882H398.941V482.471ZM369.529 482.471H398.941V511.882H369.529V482.471ZM340.118 482.471H369.529V511.882H340.118V482.471ZM340.118 453.059H369.529V482.471H340.118V453.059ZM369.529 453.059H398.941V482.471H369.529V453.059ZM398.941 453.059H428.353V482.471H398.941V453.059ZM428.353 453.059H457.765V482.471H428.353V453.059ZM428.353 423.647H457.765V453.059H428.353V423.647ZM398.941 423.647H428.353V453.059H398.941V423.647ZM369.529 423.647H398.941V453.059H369.529V423.647ZM340.118 423.647H369.529V453.059H340.118V423.647ZM428.353 394.235H457.765V423.647H428.353V394.235ZM398.941 394.235H428.353V423.647H398.941V394.235ZM369.529 394.235H398.941V423.647H369.529V394.235ZM340.118 394.235H369.529V423.647H340.118V394.235ZM340.118 364.824H369.529V394.235H340.118V364.824ZM369.529 364.824H398.941V394.235H369.529V364.824ZM398.941 364.824H428.353V394.235H398.941V364.824ZM428.353 364.824H457.765V394.235H428.353V364.824ZM428.353 335.412H457.765V364.824H428.353V335.412ZM398.941 335.412H428.353V364.824H398.941V335.412ZM369.529 335.412H398.941V364.824H369.529V335.412ZM340.118 335.412H369.529V364.824H340.118V335.412ZM340.118 306H369.529V335.412H340.118V306ZM369.529 306H398.941V335.412H369.529V306ZM398.941 306H428.353V335.412H398.941V306ZM428.353 306H457.765V335.412H428.353V306ZM428.353 276.588H457.765V306H428.353V276.588ZM398.941 276.588H428.353V306H398.941V276.588ZM369.529 276.588H398.941V306H369.529V276.588ZM340.118 276.588H369.529V306H340.118V276.588ZM340.118 217.765H369.529V247.176H340.118V217.765ZM369.529 217.765H398.941V247.176H369.529V217.765ZM398.941 217.765H428.353V247.176H398.941V217.765ZM428.353 217.765H457.765V247.176H428.353V217.765ZM428.353 247.176H457.765V276.588H428.353V247.176ZM398.941 247.176H428.353V276.588H398.941V247.176ZM369.529 247.176H398.941V276.588H369.529V247.176ZM340.118 247.176H369.529V276.588H340.118V247.176ZM546.115 217.765H575.527V247.176H546.115V217.765ZM575.527 217.765H604.938V247.176H575.527V217.765ZM604.938 217.765H634.35V247.176H604.938V217.765ZM604.938 247.176H634.35V276.588H604.938V247.176ZM634.35 247.176H663.762V276.588H634.35V247.176ZM634.35 276.588H663.762V306H634.35V276.588ZM634.35 306H663.762V335.412H634.35V306ZM634.35 217.765H663.762V247.176H634.35V217.765ZM575.527 247.176H604.938V276.588H575.527V247.176ZM546.115 247.176H575.527V276.588H546.115V247.176ZM546.115 276.588H575.527V306H546.115V276.588ZM546.115 306H575.527V335.412H546.115V306ZM546.115 335.412H575.527V364.824H546.115V335.412ZM546.115 364.824H575.527V394.235H546.115V364.824ZM546.115 394.235H575.527V423.647H546.115V394.235ZM575.527 423.647H604.938V453.059H575.527V423.647ZM604.938 423.647H634.35V453.059H604.938V423.647ZM634.35 423.647H663.762V453.059H634.35V423.647ZM634.35 394.235H663.762V423.647H634.35V394.235ZM634.35 364.824H663.762V394.235H634.35V364.824ZM634.35 335.412H663.762V364.824H634.35V335.412ZM604.938 335.412H634.35V364.824H604.938V335.412ZM604.938 306H634.35V335.412H604.938V306ZM604.938 276.588H634.35V306H604.938V276.588ZM575.527 276.588H604.938V306H575.527V276.588ZM575.527 306H604.938V335.412H575.527V306ZM575.527 335.412H604.938V364.824H575.527V335.412ZM575.527 364.824H604.938V394.235H575.527V364.824ZM575.527 394.235H604.938V423.647H575.527V394.235ZM604.938 394.235H634.35V423.647H604.938V394.235ZM604.938 364.824H634.35V394.235H604.938V364.824ZM546.115 423.647H575.527V453.059H546.115V423.647ZM546.115 453.059H575.527V482.471H546.115V453.059ZM546.115 482.471H575.527V511.882H546.115V482.471ZM546.115 511.882H575.527V541.294H546.115V511.882ZM575.527 511.882H604.938V541.294H575.527V511.882ZM575.527 541.294H604.938V570.706H575.527V541.294ZM575.527 570.706H604.938V600.118H575.527V570.706ZM604.938 570.706H634.35V600.118H604.938V570.706ZM604.938 541.294H634.35V570.706H604.938V541.294ZM634.35 541.294H663.762V570.706H634.35V541.294ZM634.35 511.882H663.762V541.294H634.35V511.882ZM634.35 482.471H663.762V511.882H634.35V482.471ZM634.35 453.059H663.762V482.471H634.35V453.059ZM604.938 453.059H634.35V482.471H604.938V453.059ZM575.527 453.059H604.938V482.471H575.527V453.059ZM575.527 482.471H604.938V511.882H575.527V482.471ZM604.938 511.882H634.35V541.294H604.938V511.882ZM604.938 482.471H634.35V511.882H604.938V482.471ZM546.115 541.294H575.527V570.706H546.115V541.294ZM546.115 570.706H575.527V600.118H546.115V570.706ZM546.115 600.118H575.527V629.529H546.115V600.118ZM546.115 629.529H575.527V658.941H546.115V629.529ZM546.115 658.941H575.527V688.353H546.115V658.941ZM546.115 688.353H575.527V717.765H546.115V688.353ZM546.115 717.765H575.527V747.176H546.115V717.765ZM546.115 747.176H575.527V776.588H546.115V747.176ZM575.527 747.176H604.938V776.588H575.527V747.176ZM575.527 776.588H604.938V806H575.527V776.588ZM546.115 776.588H575.527V806H546.115V776.588ZM604.938 776.588H634.35V806H604.938V776.588ZM634.35 776.588H663.762V806H634.35V776.588ZM634.35 747.176H663.762V776.588H634.35V747.176ZM634.35 717.765H663.762V747.176H634.35V717.765ZM634.35 688.353H663.762V717.765H634.35V688.353ZM634.35 658.941H663.762V688.353H634.35V658.941ZM634.35 629.529H663.762V658.941H634.35V629.529ZM634.35 600.118H663.762V629.529H634.35V600.118ZM604.938 600.118H634.35V629.529H604.938V600.118ZM634.35 570.706H663.762V600.118H634.35V570.706ZM604.938 629.529H634.35V658.941H604.938V629.529ZM604.938 658.941H634.35V688.353H604.938V658.941ZM604.938 688.353H634.35V717.765H604.938V688.353ZM604.938 717.765H634.35V747.176H604.938V717.765ZM604.938 747.176H634.35V776.588H604.938V747.176ZM575.527 688.353H604.938V717.765H575.527V688.353ZM575.527 658.941H604.938V688.353H575.527V658.941ZM575.527 629.529H604.938V658.941H575.527V629.529ZM575.527 600.118H604.938V629.529H575.527V600.118ZM575.527 717.765H604.938V747.176H575.527V717.765ZM663.762 541.294H693.174V570.706H663.762V541.294ZM693.174 541.294H722.585V570.706H693.174V541.294ZM722.585 541.294H751.997V570.706H722.585V541.294ZM751.997 541.294H781.409V570.706H751.997V541.294ZM751.997 570.706H781.409V600.118H751.997V570.706ZM722.585 570.706H751.997V600.118H722.585V570.706ZM751.997 600.118H781.409V629.529H751.997V600.118ZM781.409 600.118H810.821V629.529H781.409V600.118ZM781.409 629.529H810.821V658.941H781.409V629.529ZM781.409 658.941H810.821V688.353H781.409V658.941ZM781.409 688.353H810.821V717.765H781.409V688.353ZM781.409 717.765H810.821V747.176H781.409V717.765ZM781.409 747.176H810.821V776.588H781.409V747.176ZM781.409 776.588H810.821V806H781.409V776.588ZM810.821 776.588H840.233V806H810.821V776.588ZM840.233 776.588H869.644V806H840.233V776.588ZM869.644 776.588H899.056V806H869.644V776.588ZM869.644 747.176H899.056V776.588H869.644V747.176ZM869.644 717.765H899.056V747.176H869.644V717.765ZM869.644 688.353H899.056V717.765H869.644V688.353ZM869.644 658.941H899.056V688.353H869.644V658.941ZM869.644 600.118H899.056V629.529H869.644V600.118ZM869.644 629.529H899.056V658.941H869.644V629.529ZM840.233 747.176H869.644V776.588H840.233V747.176ZM810.821 747.176H840.233V776.588H810.821V747.176ZM810.821 717.765H840.233V747.176H810.821V717.765ZM810.821 688.353H840.233V717.765H810.821V688.353ZM840.233 688.353H869.644V717.765H840.233V688.353ZM840.233 658.941H869.644V688.353H840.233V658.941ZM840.233 629.529H869.644V658.941H840.233V629.529ZM810.821 629.529H840.233V658.941H810.821V629.529ZM810.821 658.941H840.233V688.353H810.821V658.941ZM840.233 717.765H869.644V747.176H840.233V717.765ZM840.233 600.118H869.644V629.529H840.233V600.118ZM840.233 570.706H869.644V600.118H840.233V570.706ZM810.821 570.706H840.233V600.118H810.821V570.706ZM810.821 600.118H840.233V629.529H810.821V600.118ZM810.821 541.294H840.233V570.706H810.821V541.294ZM781.409 541.294H810.821V570.706H781.409V541.294ZM781.409 570.706H810.821V600.118H781.409V570.706ZM781.409 511.882H810.821V541.294H781.409V511.882ZM781.409 482.471H810.821V511.882H781.409V482.471ZM810.821 482.471H840.233V511.882H810.821V482.471ZM810.821 453.059H840.233V482.471H810.821V453.059ZM840.233 453.059H869.644V482.471H840.233V453.059ZM840.233 423.647H869.644V453.059H840.233V423.647ZM869.644 423.647H899.056V453.059H869.644V423.647ZM810.821 423.647H840.233V453.059H810.821V423.647ZM810.821 394.235H840.233V423.647H810.821V394.235ZM781.409 394.235H810.821V423.647H781.409V394.235ZM751.997 394.235H781.409V423.647H751.997V394.235ZM781.409 364.824H810.821V394.235H781.409V364.824ZM810.821 364.824H840.233V394.235H810.821V364.824ZM840.233 364.824H869.644V394.235H840.233V364.824ZM869.644 364.824H899.056V394.235H869.644V364.824ZM869.644 394.235H899.056V423.647H869.644V394.235ZM840.233 394.235H869.644V423.647H840.233V394.235ZM781.409 423.647H810.821V453.059H781.409V423.647ZM781.409 453.059H810.821V482.471H781.409V453.059ZM751.997 482.471H781.409V511.882H751.997V482.471ZM751.997 453.059H781.409V482.471H751.997V453.059ZM751.997 423.647H781.409V453.059H751.997V423.647ZM722.585 423.647H751.997V453.059H722.585V423.647ZM722.585 453.059H751.997V482.471H722.585V453.059ZM722.585 482.471H751.997V511.882H722.585V482.471ZM722.585 511.882H751.997V541.294H722.585V511.882ZM693.174 511.882H722.585V541.294H693.174V511.882ZM693.174 482.471H722.585V511.882H693.174V482.471ZM663.762 482.471H693.174V511.882H663.762V482.471ZM693.174 453.059H722.585V482.471H693.174V453.059ZM663.762 453.059H693.174V482.471H663.762V453.059ZM663.762 511.882H693.174V541.294H663.762V511.882ZM751.997 511.882H781.409V541.294H751.997V511.882ZM781.409 217.765H810.821V247.176H781.409V217.765ZM810.821 217.765H840.233V247.176H810.821V217.765ZM840.233 217.765H869.644V247.176H840.233V217.765ZM869.644 217.765H899.056V247.176H869.644V217.765ZM869.644 247.176H899.056V276.588H869.644V247.176ZM869.644 276.588H899.056V306H869.644V276.588ZM869.644 306H899.056V335.412H869.644V306ZM869.644 335.412H899.056V364.824H869.644V335.412ZM840.233 335.412H869.644V364.824H840.233V335.412ZM810.821 335.412H840.233V364.824H810.821V335.412ZM781.409 335.412H810.821V364.824H781.409V335.412ZM781.409 306H810.821V335.412H781.409V306ZM781.409 276.588H810.821V306H781.409V276.588ZM781.409 247.176H810.821V276.588H781.409V247.176ZM810.821 247.176H840.233V276.588H810.821V247.176ZM840.233 247.176H869.644V276.588H840.233V247.176ZM840.233 276.588H869.644V306H840.233V276.588ZM840.233 306H869.644V335.412H840.233V306ZM810.821 306H840.233V335.412H810.821V306ZM810.821 276.588H840.233V306H810.821V276.588Z" fill="url(#paint0_linear_2015_10)"/>
</g>
</g>
<defs>
<filter id="filter0_d_2015_10" x="75.4121" y="217.765" width="860.244" height="653.835" filterUnits="userSpaceOnUse" color-interpolation-filters="sRGB">
<feFlood flood-opacity="0" result="BackgroundImageFix"/>
<feColorMatrix in="SourceAlpha" type="matrix" values="0 0 0 0 0 0 0 0 0 0 0 0 0 0 0 0 0 0 127 0" result="hardAlpha"/>
<feOffset dx="19" dy="48"/>
<feGaussianBlur stdDeviation="8.8"/>
<feComposite in2="hardAlpha" operator="out"/>
<feColorMatrix type="matrix" values="0 0 0 0 0 0 0 0 0 0 0 0 0 0 0 0 0 0 0.25 0"/>
<feBlend mode="normal" in2="BackgroundImageFix" result="effect1_dropShadow_2015_10"/>
<feBlend mode="normal" in="SourceGraphic" in2="effect1_dropShadow_2015_10" result="shape"/>
</filter>
<linearGradient id="paint0_linear_2015_10" x1="546" y1="12" x2="546" y2="1012" gradientUnits="userSpaceOnUse">
<stop stop-color="white"/>
<stop offset="1" stop-color="#999999"/>
</linearGradient>
<clipPath id="clip0_2015_10">
<rect width="1024" height="1024" fill="white"/>
</clipPath>
</defs>
</svg>
